<svg width="300" height="300" viewBox="0 0 108 108" fill="none" xmlns="http://www.w3.org/2000/svg">
<g filter="url(#filter0_d_100_4177)">
<g clip-path="url(#clip0_100_4177)">
<rect x="4" width="100" height="100" rx="20" fill="white"/>
<path d="M21.8452 49.3945H24.3354V53.6719H28.5981V49.3945H31.0884V60H28.5981V55.708H24.3354V60H21.8452V49.3945ZM35.6997 49.3945H43.0386V51.4307H38.1899V53.6719H42.6577V55.708H38.1899V57.9639H43.0532V60H35.6997V49.3945ZM47.1372 60L50.7407 49.3945H54.0513L57.6401 60H54.9595L54.2417 57.7295H50.5503L49.8325 60H47.1372ZM53.6411 55.8252L52.4399 52.0166H52.3521L51.1509 55.8252H53.6411ZM61.7681 49.3945H64.2583V57.9639H68.7114V60H61.7681V49.3945ZM75.5054 60H73.0151V49.3945H75.5054V60ZM84.5845 52.793H84.6724L86.6646 49.3945H89.4624L86.2544 54.6973L89.5649 60H86.6938L84.6724 56.5723H84.5845L82.563 60H79.7065L83.0024 54.6973L79.7798 49.3945H82.6069L84.5845 52.793Z" fill="url(#paint0_linear_100_4177)"/>
<path d="M30.9375 40.9609V41.5625H24.5547V40.9609H30.9375ZM27.7422 42.1016C29.25 42.1016 30.1562 42.5703 30.1562 43.3828C30.1562 44.1953 29.25 44.6562 27.7422 44.6484C26.2266 44.6562 25.3125 44.1953 25.3125 43.3828C25.3125 42.5703 26.2266 42.1016 27.7422 42.1016ZM27.7422 42.6797C26.6719 42.6875 26.0625 42.9297 26.0625 43.3828C26.0625 43.8281 26.6719 44.0625 27.7422 44.0625C28.7969 44.0625 29.4141 43.8281 29.4141 43.3828C29.4141 42.9297 28.7969 42.6875 27.7422 42.6797ZM30.3672 38.0078V38.6172H28.2422C28.3242 39.2969 29.3164 39.875 30.6094 40.0078L30.3438 40.5938C29.1328 40.4531 28.1289 39.9414 27.75 39.2031C27.3594 39.9414 26.3594 40.4531 25.1484 40.5938L24.8906 40.0078C26.1602 39.875 27.1602 39.3008 27.25 38.6172H25.1406V38.0078H30.3672ZM33.8828 38.7812C33.8828 39.7031 34.5234 40.5547 35.5703 40.8984L35.1719 41.4844C34.4062 41.2148 33.832 40.668 33.5312 39.9766C33.2227 40.7617 32.6289 41.375 31.8125 41.6797L31.4141 41.0859C32.5078 40.6953 33.1406 39.7656 33.1484 38.7188V38.0312H33.8828V38.7812ZM36.9688 37.6641V39.4219H37.9844V40.0469H36.9688V41.8906H36.2266V37.6641H36.9688ZM34.7109 42.0547C36.1484 42.0547 37.0312 42.5312 37.0312 43.3516C37.0312 44.1797 36.1484 44.6562 34.7109 44.6484C33.2578 44.6562 32.3594 44.1797 32.3594 43.3516C32.3594 42.5312 33.2578 42.0547 34.7109 42.0547ZM34.7109 42.6406C33.6953 42.6406 33.0938 42.9062 33.1016 43.3516C33.0938 43.8125 33.6953 44.0625 34.7109 44.0703C35.7188 44.0625 36.3047 43.8125 36.3047 43.3516C36.3047 42.9062 35.7188 42.6406 34.7109 42.6406ZM44.7812 41.7812V42.3672H41.9219V44.6641H41.1953V42.3672H38.375V41.7812H44.7812ZM39.9062 37.9453V38.8594H43.2344V37.9453H43.9766V40.9844H39.1719V37.9453H39.9062ZM39.9062 40.3906H43.2344V39.4531H39.9062V40.3906ZM51.1328 37.6641V44.6797H50.3984V40.8594H49.0078V40.25H50.3984V37.6641H51.1328ZM48.8906 38.2891V38.8906H46.3672V40.25H48.5938V40.8438H46.3672V42.4062C47.5391 42.4023 48.3516 42.375 49.2812 42.2109L49.3594 42.8125C48.3438 42.9766 47.4609 43.0156 46.1641 43.0234H45.6172V38.2891H48.8906ZM55.2422 38.0938V39.1562H56.9922V38.0938H57.7266V38.7734H59.2578V37.6641H60V41.8906H59.2578V40.8125H57.7266V41.4062H54.5V38.0938H55.2422ZM55.2422 40.8125H56.9922V39.7422H55.2422V40.8125ZM57.6562 42.0156C59.125 42.0234 60.0234 42.5 60.0234 43.3438C60.0234 44.1719 59.125 44.6562 57.6562 44.6484C56.1875 44.6562 55.2812 44.1719 55.2891 43.3438C55.2812 42.5 56.1875 42.0234 57.6562 42.0156ZM57.6562 42.5859C56.6328 42.5938 56.0234 42.8594 56.0234 43.3438C56.0234 43.8125 56.6328 44.0781 57.6562 44.0781C58.6797 44.0781 59.2891 43.8125 59.2891 43.3438C59.2891 42.8594 58.6797 42.5938 57.6562 42.5859ZM57.7266 40.2031H59.2578V39.3672H57.7266V40.2031ZM66.8984 37.6719V42.9766H66.1562V42.3047H64.75V41.7812H66.1562V37.6719H66.8984ZM67.0703 43.9141V44.5156H62.0156V42.4609H62.75V43.9141H67.0703ZM61.0469 40.8672C62.3438 40.8594 64.0859 40.8438 65.5781 40.6562L65.625 41.1875C65.0273 41.2852 64.3984 41.3516 63.7812 41.3906V42.7578H63.0391V41.4297C62.3594 41.4609 61.707 41.4648 61.1406 41.4609L61.0469 40.8672ZM63.3359 37.9375C64.3594 37.9375 65.0703 38.4297 65.0703 39.1719C65.0703 39.9141 64.3594 40.3906 63.3359 40.3906C62.2969 40.3906 61.5938 39.9141 61.5938 39.1719C61.5938 38.4297 62.2969 37.9375 63.3359 37.9375ZM63.3359 38.4922C62.7109 38.4844 62.2891 38.75 62.2969 39.1719C62.2891 39.5859 62.7109 39.8438 63.3359 39.8438C63.9375 39.8438 64.3594 39.5859 64.3672 39.1719C64.3594 38.75 63.9375 38.4844 63.3359 38.4922ZM73.5547 37.6641V40.5078H74.5703V41.1172H73.5547V44.6641H72.8125V37.6641H73.5547ZM70.1016 38.4141C70.1016 40.1641 69.7812 41.7578 68.5156 43.1094L67.9297 42.6953C68.9531 41.6328 69.3242 40.4258 69.3984 39.0234H68.1797V38.4141H70.1016ZM72.0312 38.4141C72.0312 40.1875 71.8125 42.0469 70.5234 43.5703L69.9297 43.1641C70.9688 41.9492 71.2812 40.5195 71.3359 39.0234H70.3281V38.4141H72.0312ZM77.4844 39.7266C77.4844 40.8984 78.25 42.1094 79.3281 42.5703L78.9219 43.1484C78.0977 42.7852 77.4414 42.0156 77.1172 41.0781C76.793 42.0781 76.1328 42.9297 75.3203 43.3281L74.8906 42.7422C75.9453 42.25 76.7266 40.9297 76.7344 39.7266V38.9844H75.1328V38.3672H79.0781V38.9844H77.4844V39.7266ZM80.7031 37.6641V44.6641H79.9609V37.6641H80.7031ZM83.0781 43.4609L82.4531 45.6172H81.7891L82.2031 43.4609H83.0781Z" fill="black"/>
</g>
</g>
<defs>
<filter id="filter0_d_100_4177" x="0" y="0" width="108" height="108" filterUnits="userSpaceOnUse" color-interpolation-filters="sRGB">
<feFlood flood-opacity="0" result="BackgroundImageFix"/>
<feColorMatrix in="SourceAlpha" type="matrix" values="0 0 0 0 0 0 0 0 0 0 0 0 0 0 0 0 0 0 127 0" result="hardAlpha"/>
<feOffset dy="4"/>
<feGaussianBlur stdDeviation="2"/>
<feComposite in2="hardAlpha" operator="out"/>
<feColorMatrix type="matrix" values="0 0 0 0 0 0 0 0 0 0 0 0 0 0 0 0 0 0 0.25 0"/>
<feBlend mode="normal" in2="BackgroundImageFix" result="effect1_dropShadow_100_4177"/>
<feBlend mode="normal" in="SourceGraphic" in2="effect1_dropShadow_100_4177" result="shape"/>
</filter>
<linearGradient id="paint0_linear_100_4177" x1="21.1978" y1="53.2389" x2="88.0631" y2="62.3926" gradientUnits="userSpaceOnUse">
<stop stop-color="#3071F2"/>
<stop offset="1" stop-color="#1C418C"/>
</linearGradient>
<clipPath id="clip0_100_4177">
<rect x="4" width="100" height="100" rx="20" fill="white"/>
</clipPath>
</defs>
</svg>